<?xml version="1.0" encoding="utf-8"?>
<!-- Svg Vector Icons : http://www.onlinewebfonts.com/icon -->
<!DOCTYPE svg PUBLIC "-//W3C//DTD SVG 1.1//EN" "http://www.w3.org/Graphics/SVG/1.1/DTD/svg11.dtd">
<svg version="1.1" xmlns="http://www.w3.org/2000/svg" xmlns:xlink="http://www.w3.org/1999/xlink" x="0px" y="0px" viewBox="0 0 256 256" enable-background="new 0 0 256 256" xml:space="preserve">
<metadata> Svg Vector Icons : http://www.onlinewebfonts.com/icon </metadata>
<g><g><g><path fill="#000000" d="M120.1,10.2C90.8,13.9,66,34.2,56.7,62c-3,9-3.2,10.8-3.4,27.8L53,105.4l-3.5,0.8c-6.9,1.6-13.3,6.4-16.3,12.3l-1.5,2.9v27.2v27.2l1.5,2.9c2.9,5.7,9.3,10.6,16,12.2c4.6,1.1,20,1.1,22.2-0.1c3-1.6,3-0.6,3-42.2c0-41.7,0.1-40.7-3-42.2c-0.9-0.5-2.8-0.8-4.6-0.8h-3V92.8c0-13.9,0.4-18.2,2.3-25.3c10-37.2,50.4-56.6,87.1-41.9c16.8,6.7,30,20.9,35.8,38.5c2.6,7.8,3.2,12.2,3.4,27.5l0.3,14H189c-3.5,0-3.7,0.1-5.3,1.7L182,109v39.6v39.6l1.5,1.6l1.5,1.7l9.6,0.2c11.1,0.2,10.1-0.5,8.6,6.2c-4.3,19.4-16.5,27.8-43.3,29.9l-4.3,0.4l-1.4-1.8c-0.8-1-2.6-2.5-4-3.3l-2.6-1.5h-10.4c-10.1,0-10.4,0.1-12.9,1.3c-4.4,2.2-7.3,6.6-7.2,11.1c0.1,4.5,2.9,8.8,7.2,11c2.6,1.3,2.9,1.3,12.9,1.3h10.4l2.7-1.6c1.5-0.9,3.3-2.5,4.2-3.7l1.5-2.2l4.6-0.4c12.5-0.9,24.5-4.1,32.7-9c4.2-2.5,10.3-8.2,13.1-12.2c2.5-3.7,5-9,6.3-13.6c1.2-4.1,2.6-11.7,2.6-14.2c0-1.4,0.5-2.2,3-4.6c1.9-1.9,3.6-4.1,4.5-6.1l1.5-3.2v-26.7v-26.7l-1.5-3.2c-2.9-6-9.7-11.2-16.9-12.7l-2.7-0.6V93.3c0-13.8-0.5-18.8-2.5-26.8c-7-27.3-30-49.2-57.8-55.1C138,10.3,124.5,9.6,120.1,10.2z M63.2,148.7v32.5l-6.4-0.3c-7.2-0.3-9.4-1-12.1-3.5c-0.9-0.9-1.9-2.4-2.1-3.4c-0.7-2.4-0.7-48.5,0-50.8c0.6-2,2.6-4.3,4.8-5.4c1.9-1,5.2-1.4,11.2-1.5l4.6-0.1V148.7z M207.1,117.2c2.6,0.8,4.8,2.6,5.8,4.7c0.8,1.6,0.8,4.3,0.7,27.3l-0.2,25.6l-1.2,1.7c-2.1,2.9-5.8,4.2-13.2,4.5l-6.4,0.3v-32.6v-32.5l6.3,0.2C202.4,116.5,206.1,116.8,207.1,117.2z M146.3,233.7v1.8h-9.3h-9.3v-1.8v-1.8h9.3h9.3V233.7z"/></g></g></g>
</svg>